<svg width="128" height="155" viewBox="0 0 128 155" fill="none" xmlns="http://www.w3.org/2000/svg">
<path d="M125.257 62.7874L37.6007 117.215C35.6375 118.428 33.1241 118.312 31.286 116.88C22.9581 110.417 15.518 103.863 10.5537 98.3545C10.5537 98.3545 6.2772 93.9425 4.42655 91.1431C1.438 87.3245 -1.90735e-06 82.3319 -1.90735e-06 77.4813C-1.90735e-06 72.0372 1.57556 66.8898 4.71416 62.7745C5.42691 62.0392 8.14036 58.8011 10.7038 56.1565C25.659 39.6953 64.6977 12.5007 85.23 4.25721C88.2185 2.92845 96.1963 0.154808 100.335 0C104.324 0 108.176 0.877244 111.877 2.79944C116.428 5.44407 119.992 9.54648 121.993 14.41C123.281 17.79 125.269 27.9299 125.269 28.2266C126.557 35.4639 127.52 45.6296 127.995 57.4982C128.083 59.6268 127.02 61.6909 125.257 62.7874Z" fill="black"/>
<path opacity="0.4" d="M119.395 92.1022C123.259 89.6898 128.123 92.773 127.935 97.4043C127.473 108.267 126.672 117.839 125.697 124.96C125.547 125.115 123.559 137.745 121.271 142.015C117.282 149.949 109.454 154.799 101.038 154.799H100.338C94.9113 154.657 83.3697 149.807 83.3697 149.51C77.5552 147.072 69.965 142.944 61.7997 137.977C58.1234 135.732 58.0358 130.224 61.7121 127.94L119.395 92.1022Z" fill="black"/>
</svg>
