<svg width="128" height="128" viewBox="0 0 128 128" fill="none" xmlns="http://www.w3.org/2000/svg">
<mask id="mask0_592_101" style="mask-type:luminance" maskUnits="userSpaceOnUse" x="0" y="0" width="128" height="128">
<rect width="128" height="128" fill="white"/>
</mask>
<g mask="url(#mask0_592_101)">
<path d="M54.6817 31.3832L56.1665 53.463L56.9036 64.5606C56.9116 65.7019 57.0903 66.8358 57.4353 67.9254C58.3255 70.0406 60.4673 71.3846 62.7975 71.2907L98.3025 68.968C99.8401 68.943 101.325 69.5179 102.43 70.567C103.351 71.4411 103.946 72.5846 104.133 73.8144L104.196 74.5611C102.727 94.9062 87.7847 111.876 67.4817 116.256C47.1785 120.636 26.3589 111.383 16.3261 93.5195C13.4337 88.3296 11.6271 82.6256 11.0123 76.7414C10.7555 74.9995 10.6424 73.24 10.6742 71.48C10.6424 49.6679 26.1754 30.8105 47.9187 26.2644C50.5357 25.8569 53.1011 27.2423 54.1505 29.6295C54.422 30.1824 54.6012 30.7745 54.6817 31.3832Z" fill="#737791"/>
<path opacity="0.4" d="M117.334 52.3319L117.297 52.5057L117.189 52.7585L117.204 53.4525C117.148 54.3714 116.793 55.2557 116.182 55.9704C115.545 56.7144 114.674 57.221 113.716 57.4178L113.131 57.4978L72.167 60.1522C70.8043 60.2866 69.4475 59.8472 68.4347 58.9437C67.5899 58.1901 67.0502 57.1736 66.8976 56.0781L64.1483 15.1734C64.1003 15.0351 64.1003 14.8852 64.1483 14.7468C64.1856 13.6193 64.6822 12.5535 65.5264 11.7876C66.3702 11.0217 67.4923 10.6194 68.6406 10.6708C92.96 11.2895 113.4 28.7773 117.334 52.3319Z" fill="#4E5160"/>
</g>
</svg>
