<svg width="128" height="128" viewBox="0 0 128 128" fill="none" xmlns="http://www.w3.org/2000/svg">
<mask id="mask0_414_30" style="mask-type:luminance" maskUnits="userSpaceOnUse" x="0" y="0" width="128" height="128">
<rect width="128" height="128" fill="white"/>
</mask>
<g mask="url(#mask0_414_30)">
<path d="M54.6808 31.3833L56.1656 53.4631L56.9026 64.5607C56.9106 65.702 57.0893 66.8359 57.4344 67.9255C58.3245 70.0407 60.4664 71.3847 62.7965 71.2908L98.3015 68.9681C99.8391 68.9431 101.324 69.518 102.429 70.5671C103.35 71.4412 103.945 72.5847 104.132 73.8146L104.195 74.5612C102.726 94.9063 87.7837 111.876 67.4808 116.256C47.1776 120.636 26.3579 111.383 16.3251 93.5196C13.4327 88.3298 11.6261 82.6257 11.0113 76.7415C10.7545 74.9996 10.6415 73.2401 10.6732 71.4801C10.6415 49.668 26.1745 30.8106 47.9177 26.2645C50.5347 25.857 53.1001 27.2424 54.1496 29.6296C54.421 30.1825 54.6002 30.7746 54.6808 31.3833Z" fill="white"/>
<path opacity="0.4" d="M117.335 52.3321L117.298 52.5059L117.19 52.7586L117.205 53.4526C117.149 54.3716 116.794 55.2558 116.183 55.9705C115.546 56.7145 114.675 57.2212 113.717 57.418L113.132 57.498L72.1679 60.1524C70.8053 60.2868 69.4485 59.8473 68.4357 58.9438C67.5909 58.1902 67.0511 57.1737 66.8986 56.0782L64.1493 15.1735C64.1013 15.0352 64.1013 14.8853 64.1493 14.7469C64.1866 13.6194 64.6831 12.5536 65.5274 11.7877C66.3711 11.0218 67.4933 10.6196 68.6415 10.6709C92.961 11.2896 113.4 28.7774 117.335 52.3321Z" fill="white"/>
</g>
</svg>
