<svg width="128" height="128" viewBox="0 0 128 128" fill="none" xmlns="http://www.w3.org/2000/svg">
<path fill-rule="evenodd" clip-rule="evenodd" d="M88.8073 40.9005L67.5139 22.651C66.5197 21.7795 65.2647 21.3337 64.003 21.333C63.1398 21.3326 62.2734 21.5406 61.4855 21.9633C61.1343 22.1511 60.8007 22.3806 60.4922 22.651L39.1987 40.9005C36.9622 42.8173 36.703 46.1842 38.6198 48.4208C40.5366 50.6573 43.9035 50.9165 46.14 48.9997L58.6693 38.2615V79.5662C58.6693 82.5117 61.0572 84.8995 64.0027 84.8995C66.9482 84.8995 69.336 82.5117 69.336 79.5662L69.336 38.2609L81.866 48.9997C84.1025 50.9165 87.4695 50.6573 89.3862 48.4208C91.303 46.1842 91.0439 42.8173 88.8073 40.9005ZM32.0026 74.6663C32.0026 71.7208 34.3904 69.333 37.3359 69.333H45.3359C48.2815 69.333 50.6693 66.9452 50.6693 63.9997C50.6693 61.0542 48.2815 58.6663 45.3359 58.6663H37.3359C28.4994 58.6663 21.3359 65.8298 21.3359 74.6663V90.6663C21.3359 99.5029 28.4994 106.666 37.3359 106.666H90.6693C99.5058 106.666 106.669 99.5029 106.669 90.6663V74.6663C106.669 65.8298 99.5058 58.6663 90.6693 58.6663H82.6693C79.7238 58.6663 77.3359 61.0542 77.3359 63.9997C77.3359 66.9452 79.7238 69.333 82.6693 69.333H90.6693C93.6148 69.333 96.0026 71.7208 96.0026 74.6663V90.6663C96.0026 93.6119 93.6148 95.9997 90.6693 95.9997H37.3359C34.3904 95.9997 32.0026 93.6119 32.0026 90.6663V74.6663Z" fill="#0F3659"/>
</svg>
