<svg width="128" height="128" viewBox="0 0 128 128" fill="none" xmlns="http://www.w3.org/2000/svg">
<circle cx="64" cy="64" r="64" fill="#3CD856"/>
<path fill-rule="evenodd" clip-rule="evenodd" d="M40.6667 34C36.9848 34 34 36.9848 34 40.6667V87.3333C34 91.0152 36.9848 94 40.6667 94H87.3333C91.0152 94 94 91.0152 94 87.3333V40.6667C94 36.9848 91.0152 34 87.3333 34H40.6667ZM50.6667 67.3333C50.6667 65.4923 49.1743 64 47.3333 64C45.4924 64 44 65.4923 44 67.3333V80.6667C44 82.5077 45.4924 84 47.3333 84C49.1743 84 50.6667 82.5077 50.6667 80.6667V67.3333ZM64 54C65.8409 54 67.3333 55.4923 67.3333 57.3333V80.6667C67.3333 82.5077 65.8409 84 64 84C62.1591 84 60.6667 82.5077 60.6667 80.6667V57.3333C60.6667 55.4923 62.1591 54 64 54ZM84 47.3333C84 45.4923 82.5076 44 80.6667 44C78.8257 44 77.3333 45.4923 77.3333 47.3333V80.6667C77.3333 82.5077 78.8257 84 80.6667 84C82.5076 84 84 82.5077 84 80.6667V47.3333Z" fill="white"/>
</svg>
