<svg width="128" height="128" viewBox="0 0 128 128" fill="none" xmlns="http://www.w3.org/2000/svg">
<path d="M73.4304 0C75.3687 0 76.8596 1.344 76.8596 2.944V23.552C76.8596 35.264 88.1165 44.864 101.759 44.928C107.425 44.928 111.897 44.992 115.327 44.992L116.597 44.9873C118.889 44.9724 121.974 44.928 124.645 44.928C126.509 44.928 128 46.208 128 47.808V99.264C128 115.136 113.016 128 94.5277 128H35.187C15.8043 128 0 114.496 0 97.856V28.864C0 12.992 15.0588 0 33.6214 0H73.4304ZM81.4071 82.56H40.8527C37.7962 82.56 35.2615 84.672 35.2615 87.296C35.2615 89.92 37.7962 92.096 40.8527 92.096H81.4071C84.4636 92.096 86.9983 89.92 86.9983 87.296C86.9983 84.672 84.4636 82.56 81.4071 82.56ZM66.0501 50.56H40.8527C37.7962 50.56 35.2615 52.736 35.2615 55.36C35.2615 57.984 37.7962 60.096 40.8527 60.096H66.0501C69.1066 60.096 71.6412 57.984 71.6412 55.36C71.6412 52.736 69.1066 50.56 66.0501 50.56ZM87.7229 5.7984C87.7229 3.04 91.6218 1.6704 93.8508 3.6608C101.909 10.8544 115.992 23.4304 123.864 30.4576C126.041 32.3968 124.446 35.616 121.307 35.6224C115.179 35.6416 107.955 35.6224 102.759 35.5776C94.5142 35.5776 87.7229 29.7472 87.7229 22.6688V5.7984Z" fill="#4437AB"/>
</svg>
