<svg width="128" height="128" viewBox="0 0 128 128" fill="none" xmlns="http://www.w3.org/2000/svg">
<circle cx="64" cy="64" r="64" fill="#FF947A"/>
<path fill-rule="evenodd" clip-rule="evenodd" d="M34 42.5329C34 34.5066 40.5066 28 48.5329 28H70.3322V42.5329C70.3322 50.5592 76.8388 57.0658 84.8651 57.0658H92.1316V86.1316C92.1316 94.1579 85.625 100.664 77.5987 100.664H48.5329C40.5066 100.664 34 94.1579 34 86.1316V42.5329ZM48.5329 60.699C46.5263 60.699 44.8997 62.3257 44.8997 64.3322C44.8997 66.3388 46.5263 67.9654 48.5329 67.9654H55.7993C57.8059 67.9654 59.4326 66.3388 59.4326 64.3322C59.4326 62.3257 57.8059 60.699 55.7993 60.699H48.5329ZM48.5329 75.2319C46.5263 75.2319 44.8997 76.8585 44.8997 78.8651C44.8997 80.8717 46.5263 82.4983 48.5329 82.4983H63.0658C65.0723 82.4983 66.699 80.8717 66.699 78.8651C66.699 76.8585 65.0723 75.2319 63.0658 75.2319H48.5329ZM80.0758 35.9887L79.6 43.1247C79.4538 45.318 81.2736 47.1377 83.4669 46.9915L90.6029 46.5158C93.7175 46.3081 95.1375 42.5288 92.9303 40.3215L86.27 33.6613C84.0628 31.454 80.2834 32.8741 80.0758 35.9887Z" fill="white"/>
</svg>
