<svg width="128" height="128" viewBox="0 0 128 128" fill="none" xmlns="http://www.w3.org/2000/svg">
<path d="M124.876 109.793L97.7983 82.7155C103.393 74.2834 106.668 64.1873 106.668 53.3339C106.668 23.9256 82.7422 0 53.3339 0C23.9256 0 0 23.9256 0 53.3339C0 82.7422 23.9256 106.668 53.3339 106.668C64.1873 106.668 74.2834 103.393 82.7155 97.7983L109.793 124.876C113.953 129.041 120.716 129.041 124.876 124.876C129.041 120.711 129.041 113.959 124.876 109.793ZM16.0002 53.3339C16.0002 32.747 32.747 16.0002 53.3339 16.0002C73.9208 16.0002 90.6676 32.747 90.6676 53.3339C90.6676 73.9208 73.9208 90.6676 53.3339 90.6676C32.747 90.6676 16.0002 73.9208 16.0002 53.3339Z" fill="#5D5FEF"/>
</svg>
